<svg width="13" height="13" viewBox="0 0 13 13" fill="none" xmlns="http://www.w3.org/2000/svg">
<g clip-path="url(#clip0_412_5383)">
<path d="M9.20831 7.25841V8.88341C9.20831 11.0501 8.34165 11.9167 6.17498 11.9167H4.11665C1.94998 11.9167 1.08331 11.0501 1.08331 8.88341V6.82508C1.08331 4.65841 1.94998 3.79175 4.11665 3.79175H5.74165" stroke="#7B8794" stroke-width="0.8125" stroke-linecap="round" stroke-linejoin="round"/>
<path d="M6.28335 1.08325H8.45002M3.79169 2.70825C3.79169 1.80909 4.51752 1.08325 5.41669 1.08325H6.83585M11.9167 4.33325V7.68617C11.9167 8.52575 11.2342 9.20825 10.3946 9.20825M11.9167 4.33325H10.2917C9.07294 4.33325 8.66669 3.927 8.66669 2.70825V1.08325L11.9167 4.33325ZM9.20835 7.25825H7.47502C6.17502 7.25825 5.74169 6.82492 5.74169 5.52492V3.79159L9.20835 7.25825Z" stroke="#7B8794" stroke-width="0.8125" stroke-linecap="round" stroke-linejoin="round"/>
</g>
<defs>
<clipPath id="clip0_412_5383">
<rect width="13" height="13" fill="white"/>
</clipPath>
</defs>
</svg>
