<svg width="11" height="11" viewBox="0 0 11 11" fill="none" xmlns="http://www.w3.org/2000/svg">
<g clip-path="url(#clip0_412_5323)">
<path d="M4.12498 4.58333C4.36809 4.58333 4.60125 4.48676 4.77316 4.31485C4.94507 4.14294 5.04165 3.90978 5.04165 3.66667C5.04165 3.42355 4.94507 3.19039 4.77316 3.01849C4.60125 2.84658 4.36809 2.75 4.12498 2.75C3.88186 2.75 3.64871 2.84658 3.4768 3.01849C3.30489 3.19039 3.20831 3.42355 3.20831 3.66667C3.20831 3.90978 3.30489 4.14294 3.4768 4.31485C3.64871 4.48676 3.88186 4.58333 4.12498 4.58333Z" stroke="#002928" stroke-width="0.6875" stroke-linecap="round" stroke-linejoin="round"/>
<path d="M5.95835 0.916748H4.12502C1.83335 0.916748 0.916687 1.83341 0.916687 4.12508V6.87508C0.916687 9.16675 1.83335 10.0834 4.12502 10.0834H6.87502C9.16669 10.0834 10.0834 9.16675 10.0834 6.87508V4.58341" stroke="#002928" stroke-width="0.6875" stroke-linecap="round" stroke-linejoin="round"/>
<path d="M8.77249 1.18705L7.10874 2.8508C7.04457 2.91497 6.98041 3.03872 6.97124 3.13038L6.87957 3.76747C6.84749 3.99663 7.00791 4.15705 7.23707 4.12497L7.87416 4.0333C7.96124 4.01955 8.08957 3.95997 8.15374 3.8958L9.81749 2.23205C10.1062 1.9433 10.2392 1.6133 9.81749 1.19163C9.39124 0.760801 9.06124 0.898301 8.77249 1.18705Z" stroke="#002928" stroke-width="0.6875" stroke-miterlimit="10" stroke-linecap="round" stroke-linejoin="round"/>
<path d="M8.53418 1.42529C8.67626 1.92946 9.07043 2.32363 9.5746 2.46571" stroke="#002928" stroke-width="0.6875" stroke-miterlimit="10" stroke-linecap="round" stroke-linejoin="round"/>
<path d="M1.22375 8.68534L3.48334 7.16826C3.84542 6.92534 4.36792 6.95284 4.69334 7.23242L4.84459 7.36534C5.20209 7.67242 5.77959 7.67242 6.13709 7.36534L8.04375 5.72909C8.40125 5.42201 8.97875 5.42201 9.33625 5.72909L10.0833 6.37076" stroke="#002928" stroke-width="0.6875" stroke-linecap="round" stroke-linejoin="round"/>
</g>
<defs>
<clipPath id="clip0_412_5323">
<rect width="11" height="11" fill="white"/>
</clipPath>
</defs>
</svg>
