<svg width="25" height="24" viewBox="0 0 25 24" fill="none" xmlns="http://www.w3.org/2000/svg">
<path d="M12.5 14.88C11.59 14.88 10.85 14.14 10.85 13.23V10.76C10.85 9.84999 11.59 9.10999 12.5 9.10999C13.41 9.10999 14.15 9.84999 14.15 10.76V13.23C14.15 14.14 13.41 14.88 12.5 14.88Z" stroke="black" stroke-width="1.5" stroke-linecap="round"/>
<path d="M17.48 13.47C17.28 16.05 15.12 18.07 12.5 18.07C9.74 18.07 7.5 15.83 7.5 13.07V10.93C7.5 8.16999 9.74 5.92999 12.5 5.92999C15.09 5.92999 17.22 7.89999 17.47 10.42" stroke="black" stroke-width="1.5" stroke-linecap="round"/>
<path d="M15.5 2H17.5C20.5 2 22.5 4 22.5 7V9M2.5 9V7C2.5 4 4.5 2 7.5 2H9.5M15.5 22H17.5C20.5 22 22.5 20 22.5 17V15M2.5 15V17C2.5 20 4.5 22 7.5 22H9.5" stroke="black" stroke-width="1.5" stroke-miterlimit="10" stroke-linecap="round" stroke-linejoin="round"/>
</svg>
