<svg width="20" height="23" viewBox="0 0 20 23" fill="none" xmlns="http://www.w3.org/2000/svg">
<path d="M11.6557 20.019C11.9745 19.7493 12.4639 19.7326 12.8044 19.9972C13.1789 20.2884 13.2314 20.8098 12.9217 21.1618C12.1581 22.1004 10.9767 22.6556 9.71968 22.6667L9.47012 22.6567C8.31119 22.577 7.23854 22.0354 6.52789 21.1618L6.45236 21.0619C6.23034 20.7169 6.30468 20.2619 6.64516 19.9972C7.01968 19.7061 7.57439 19.7554 7.88415 20.1075C8.02018 20.2784 8.18158 20.4301 8.36342 20.558C8.84947 20.8981 9.45985 21.0418 10.0591 20.9572C10.6583 20.8727 11.1969 20.5668 11.5552 20.1075H11.5654L11.6557 20.019ZM9.72988 0.879974C13.2582 0.879974 17.2148 3.23788 17.6635 7.02396V8.99847C17.8167 9.71111 18.1686 10.3727 18.6832 10.9155C18.7137 10.9482 18.741 10.9835 18.7648 11.0209C19.2314 11.6866 19.4991 12.4579 19.5398 13.2542L19.5092 13.4555C19.5444 14.5452 19.1606 15.6102 18.4283 16.4556C17.4931 17.412 16.2145 18.0094 14.8388 18.133C11.45 18.4855 8.03016 18.4855 4.64136 18.133C3.28572 18.001 2.02945 17.4038 1.11305 16.4556C0.368636 15.6224 -0.0266047 14.5624 0.00152672 13.4747V13.3405C0.0575914 12.5204 0.346326 11.7294 0.837716 11.0497L0.919296 10.9538C1.43033 10.4087 1.78175 9.74812 1.93904 9.03681V7.0623L1.99543 6.952C2.16687 6.67196 2.50078 6.50817 2.85049 6.54403C3.24392 6.58437 3.55985 6.86739 3.62162 7.23483V9.20934C3.62558 9.24438 3.62558 9.27972 3.62162 9.31477C3.40929 10.3036 2.92397 11.2226 2.21437 11.9794C1.9411 12.3886 1.78642 12.8578 1.76568 13.3405V13.5513C1.74304 14.2302 1.98205 14.894 2.43871 15.4204C3.07184 16.0351 3.91848 16.416 4.82491 16.4939C8.10561 16.8294 11.4153 16.8294 14.696 16.4939C15.6272 16.4136 16.4946 16.0145 17.1332 15.3725C17.5675 14.8585 17.7949 14.217 17.7757 13.5609V13.3405C17.7547 12.8561 17.6039 12.3847 17.3372 11.9698C16.598 11.2216 16.0842 10.3019 15.8483 9.30519C15.8444 9.27014 15.8444 9.2348 15.8483 9.19975V7.21566C15.5526 4.32099 12.4832 2.52859 9.81146 2.52859C8.67558 2.52614 7.55839 2.80022 6.56868 3.32415L6.44746 3.38117C6.19826 3.47654 5.91315 3.4598 5.67619 3.33036C5.39973 3.17934 5.23263 2.89887 5.2401 2.5984C5.24757 2.29794 5.42843 2.02511 5.71209 1.8864C6.93848 1.23518 8.32135 0.888779 9.72988 0.879974Z" fill="#002928"/>
</svg>
