<svg width="21" height="21" viewBox="0 0 21 21" fill="none" xmlns="http://www.w3.org/2000/svg">
<path d="M0.916626 7.91633V5.62466C0.916626 3.34216 2.84288 1.49966 5.22913 1.49966H7.62496M13.375 1.49966H15.7708C18.157 1.49966 20.0833 3.34216 20.0833 5.62466V7.91633M20.0833 14.333V15.708C20.0833 17.9905 18.157 19.833 15.7708 19.833H14.3333M7.62496 19.833H5.22913C2.84288 19.833 0.916626 17.9905 0.916626 15.708V13.4163M9.06246 6.083V7.91633C9.06246 8.833 8.58329 9.29133 7.62496 9.29133H5.70829C4.74996 9.29133 4.27079 8.833 4.27079 7.91633V6.083C4.27079 5.16633 4.74996 4.708 5.70829 4.708H7.62496C8.58329 4.708 9.06246 5.16633 9.06246 6.083ZM16.7291 6.083V7.91633C16.7291 8.833 16.25 9.29133 15.2916 9.29133H13.375C12.4166 9.29133 11.9375 8.833 11.9375 7.91633V6.083C11.9375 5.16633 12.4166 4.708 13.375 4.708H15.2916C16.25 4.708 16.7291 5.16633 16.7291 6.083ZM9.06246 13.4163V15.2497C9.06246 16.1663 8.58329 16.6247 7.62496 16.6247H5.70829C4.74996 16.6247 4.27079 16.1663 4.27079 15.2497V13.4163C4.27079 12.4997 4.74996 12.0413 5.70829 12.0413H7.62496C8.58329 12.0413 9.06246 12.4997 9.06246 13.4163ZM16.7291 13.4163V15.2497C16.7291 16.1663 16.25 16.6247 15.2916 16.6247H13.375C12.4166 16.6247 11.9375 16.1663 11.9375 15.2497V13.4163C11.9375 12.4997 12.4166 12.0413 13.375 12.0413H15.2916C16.25 12.0413 16.7291 12.4997 16.7291 13.4163Z" stroke="#002928" stroke-width="1.60417" stroke-linecap="round" stroke-linejoin="round"/>
</svg>
