<svg width="25" height="24" viewBox="0 0 25 24" fill="none" xmlns="http://www.w3.org/2000/svg">
<path d="M15 9.25H2.5C2.09 9.25 1.75 8.91 1.75 8.5C1.75 8.09 2.09 7.75 2.5 7.75H15C15.41 7.75 15.75 8.09 15.75 8.5C15.75 8.91 15.41 9.25 15 9.25ZM8.5 17.25H6.5C6.09 17.25 5.75 16.91 5.75 16.5C5.75 16.09 6.09 15.75 6.5 15.75H8.5C8.91 15.75 9.25 16.09 9.25 16.5C9.25 16.91 8.91 17.25 8.5 17.25ZM15 17.25H11C10.59 17.25 10.25 16.91 10.25 16.5C10.25 16.09 10.59 15.75 11 15.75H15C15.41 15.75 15.75 16.09 15.75 16.5C15.75 16.91 15.41 17.25 15 17.25Z" fill="#002928"/>
<path d="M18.06 21.25H6.94C2.96 21.25 1.75 20.05 1.75 16.11V7.89C1.75 3.95 2.96 2.75 6.94 2.75H15C15.41 2.75 15.75 3.09 15.75 3.5C15.75 3.91 15.41 4.25 15 4.25H6.94C3.8 4.25 3.25 4.79 3.25 7.89V16.1C3.25 19.2 3.8 19.74 6.94 19.74H18.05C21.19 19.74 21.74 19.2 21.74 16.1V14.02C21.74 13.61 22.08 13.27 22.49 13.27C22.9 13.27 23.24 13.61 23.24 14.02V16.1C23.25 20.05 22.04 21.25 18.06 21.25Z" fill="#002928"/>
<path d="M20.5 10.2519C20.09 10.2519 19.75 9.91189 19.75 9.50189V3.50189C19.75 3.20189 19.93 2.92189 20.21 2.81189C20.49 2.70189 20.81 2.76189 21.03 2.97189L23.03 4.97189C23.32 5.26189 23.32 5.74189 23.03 6.03189C22.74 6.32189 22.26 6.32189 21.97 6.03189L21.25 5.31189V9.50189C21.25 9.91189 20.91 10.2519 20.5 10.2519Z" fill="#002928"/>
<path d="M18.501 6.25092C18.311 6.25092 18.121 6.18092 17.971 6.03092C17.8315 5.88978 17.7533 5.69935 17.7533 5.50092C17.7533 5.30249 17.8315 5.11206 17.971 4.97092L19.971 2.97092C20.261 2.68092 20.741 2.68092 21.031 2.97092C21.321 3.26092 21.321 3.74092 21.031 4.03092L19.031 6.03092C18.881 6.18092 18.691 6.25092 18.501 6.25092Z" fill="#002928"/>
</svg>
