<svg width="25" height="24" viewBox="0 0 25 24" fill="none" xmlns="http://www.w3.org/2000/svg">
<path d="M15.5 22.75H9.5C4.07 22.75 1.75 20.43 1.75 15V9C1.75 3.57 4.07 1.25 9.5 1.25H15.5C20.93 1.25 23.25 3.57 23.25 9V15C23.25 20.43 20.93 22.75 15.5 22.75ZM9.5 2.75C4.89 2.75 3.25 4.39 3.25 9V15C3.25 19.61 4.89 21.25 9.5 21.25H15.5C20.11 21.25 21.75 19.61 21.75 15V9C21.75 4.39 20.11 2.75 15.5 2.75H9.5Z" fill="#002928"/>
<path d="M14.61 17.61C14.42 17.61 14.23 17.54 14.08 17.39C13.9405 17.2489 13.8623 17.0584 13.8623 16.86C13.8623 16.6616 13.9405 16.4711 14.08 16.33L17.12 13.29C17.41 13 17.89 13 18.18 13.29C18.47 13.58 18.47 14.06 18.18 14.35L15.14 17.39C14.9995 17.5307 14.8089 17.6098 14.61 17.61Z" fill="#002928"/>
<path d="M17.65 14.5701H7.34998C6.93998 14.5701 6.59998 14.2301 6.59998 13.8201C6.59998 13.4101 6.93998 13.0701 7.34998 13.0701H17.66C18.07 13.0701 18.41 13.4101 18.41 13.8201C18.41 14.2301 18.07 14.5701 17.65 14.5701ZM7.34998 10.9301C7.15998 10.9301 6.96998 10.8601 6.81998 10.7101C6.68074 10.5688 6.60268 10.3784 6.60268 10.1801C6.60268 9.98173 6.68074 9.79134 6.81998 9.65008L9.85998 6.61008C10.15 6.32008 10.63 6.32008 10.92 6.61008C11.21 6.90008 11.21 7.38008 10.92 7.67008L7.87998 10.7101C7.72998 10.8601 7.53998 10.9301 7.34998 10.9301Z" fill="#002928"/>
<path d="M17.65 10.9299H7.34998C6.93998 10.9299 6.59998 10.5899 6.59998 10.1799C6.59998 9.76993 6.93998 9.42993 7.34998 9.42993H17.66C18.07 9.42993 18.41 9.76993 18.41 10.1799C18.41 10.5899 18.07 10.9299 17.65 10.9299Z" fill="#002928"/>
</svg>
